<?xml version="1.0" encoding="utf-8"?>
<!-- Generator: Adobe Illustrator 16.0.0, SVG Export Plug-In . SVG Version: 6.00 Build 0)  -->
<!DOCTYPE svg PUBLIC "-//W3C//DTD SVG 1.1//EN" "http://www.w3.org/Graphics/SVG/1.1/DTD/svg11.dtd">
<svg version="1.1" id="Layer_1" xmlns="http://www.w3.org/2000/svg" xmlns:xlink="http://www.w3.org/1999/xlink" x="0px" y="0px"
	 width="35.895px" height="47.083px" viewBox="0 0 35.895 47.083" enable-background="new 0 0 35.895 47.083" xml:space="preserve">
<g id="Layer_1_1_" display="none">
	
		<image display="inline" overflow="visible" enable-background="new    " width="159" height="194" xlink:href="../Icons%20Pack/PNG/256/C8E13B5922C0C6A2.html"  transform="matrix(0.3187 0 0 0.3016 44.1311 15.6802)">
	</image>
	<rect id="_x3C_Slice_x3E_" x="44.088" y="14.167" display="inline" fill="none" width="50" height="61"/>
	<path display="inline" fill="none" stroke="#000000" stroke-width="0.3" d="M45.059-39.019v36 M-8.941,14.981h36 M-8.941,74.872h36
		 M45.059,128.872v-36 M93.861-39.019v36 M147.861,14.981h-36 M147.861,74.872h-36 M93.861,128.872v-36"/>
</g>
<g>
	<path fill="#FFFFFF" d="M8.238,9.5c0.454-0.034,1.038-0.041,1.5-0.042c1.033-0.002,1.724,0.072,2.625,0.375
		c0.501,0.168,1.958,0.958,2.542,1.75c0.62,0.841,0.867,1.569,0.292,2.208c-0.491,0.548-1.466,0.572-2.417,0.083
		c-0.728-0.374-1.283-1.104-1.5-1.375c-0.42-0.576-0.75-1.042-1.042-1.875c-0.275-0.788-0.606-1.558-0.833-2.25
		C8.943,6.956,6.994,7.376,7.46,8.803c0.369,1.125,0.777,2.214,1.329,3.233c0.458,0.845,1.013,1.643,1.726,2.374
		c0.611,0.628,1.57,1.17,2.578,1.412c1.106,0.267,2.272,0.17,3.103-0.572c0.907-0.812,1.179-1.756,1.021-2.687
		c-0.158-0.931-0.747-1.848-1.562-2.606c-0.892-0.831-2.083-1.408-3.337-1.817c-1.124-0.367-2.298-0.599-3.352-0.758
		C8.278,7.279,7.6,7.61,7.447,8.083c-0.191,0.588,0.306,1.37,1.167,1.5L8.238,9.5z"/>
	<path fill="#FFFFFF" d="M21.138,10.83c-0.539,0.248-1.022,0.587-1.453,0.991c-0.567,0.532-1.044,1.177-1.437,1.873
		c-0.295,0.521-0.542,1.071-0.745,1.622c-0.255,0.695-0.44,1.392-0.56,2.041c-0.271,1.457,1.606,1.943,1.878,0.477
		c0.114-0.615,0.371-1.151,0.625-1.833s0.602-1.475,1.041-2.042c0.405-0.524,1.025-1.182,1.625-1.458
		C23.53,11.848,22.549,10.18,21.138,10.83L21.138,10.83z"/>
	<path fill="#FFFFFF" d="M15.611,17.145c-1.442-0.56-2.961-0.708-4.374-0.44c-1.113,0.211-2.446,0.93-3.375,1.92
		c-0.625,0.667-0.94,1.186-1.333,1.792c-0.792,1.625-0.917,1.917-1.125,3.292c-0.233,1.54-0.125,3.175,0.122,4.981
		c0.176,1.291,0.595,2.668,1.167,3.99c0.625,1.445,1.433,2.828,2.304,3.967c0.918,1.203,2.181,1.525,3.522,1.447
		c1.625-0.096,3.367-0.783,4.751-1.213c2.073-0.645,3.797,0.676,5.573,1.031c0.965,0.191,1.947,0.1,3.006-0.75
		c1.096-0.879,1.971-2.16,2.666-3.57c0.947-1.922,1.428-3.457,1.807-5.176c0.391-1.768,0.428-4.22-0.084-6
		c-0.406-1.413-1.043-2.836-2.146-3.899c-1.092-1.053-2.326-1.967-3.934-2.1c-1.654-0.138-3.246,0.422-4.832,0.762
		C18.095,17.443,16.865,17.574,15.611,17.145c-1.486-0.509-1.844,1.56-0.373,2.063c1.458,0.292,2.259,0.407,3.375,0.209
		c0.99-0.175,2.104-0.415,3.334-0.75c2.307-0.63,4.129,0.333,5.166,1.833c0.598,0.865,0.982,1.954,1.209,3.042
		c0.26,1.252,0.217,2.834,0.041,3.875c-0.189,1.121-0.354,2.264-0.791,3.334c-0.49,1.201-1.068,2.203-1.75,3.291
		c-0.727,1.16-1.893,1.916-2.709,1.916c-0.986,0-2.166-0.719-3.459-1.082c-1.898-0.533-3.962,0.469-5.708,1.041
		c-1.468,0.48-2.511-0.062-3.25-0.791c-0.932-0.918-1.711-2.359-2.208-3.709c-0.187-0.51-0.688-1.734-0.917-3.291
		c-0.208-1.418-0.237-3.201,0.083-4.625c0.375-1.667,0.583-2.25,1.667-3.458c0.64-0.713,1.333-1.083,2.542-1.375
		c0.721-0.174,2.236,0.081,3.208,0.458C16.529,19.692,17.047,17.703,15.611,17.145L15.611,17.145z"/>
</g>
</svg>
