<?xml version="1.0" encoding="utf-8"?>
<!-- Generator: Adobe Illustrator 17.0.0, SVG Export Plug-In . SVG Version: 6.00 Build 0)  -->
<!DOCTYPE svg PUBLIC "-//W3C//DTD SVG 1.1//EN" "http://www.w3.org/Graphics/SVG/1.1/DTD/svg11.dtd">
<svg version="1.1" id="Layer_1" xmlns="http://www.w3.org/2000/svg" xmlns:xlink="http://www.w3.org/1999/xlink" x="0px" y="0px"
	 width="10.25px" height="8.75px" viewBox="0 0 10.25 8.75" enable-background="new 0 0 10.25 8.75" xml:space="preserve">
<g>
	<path fill="#0099D8" d="M10.289,1.286c0,0.234-0.194,0.429-0.429,0.429H0.429C0.194,1.715,0,1.521,0,1.286V0.429
		C0,0.194,0.194,0,0.429,0H9.86c0.234,0,0.429,0.194,0.429,0.429V1.286z M10.289,4.716c0,0.234-0.194,0.429-0.429,0.429H0.429
		C0.194,5.145,0,4.95,0,4.716V3.858C0,3.624,0.194,3.43,0.429,3.43H9.86c0.234,0,0.429,0.194,0.429,0.429V4.716z M10.289,8.146
		c0,0.234-0.194,0.429-0.429,0.429H0.429C0.194,8.574,0,8.38,0,8.146V7.288c0-0.234,0.194-0.429,0.429-0.429H9.86
		c0.234,0,0.429,0.194,0.429,0.429V8.146z"/>
</g>
<g>
</g>
<g>
</g>
<g>
</g>
<g>
</g>
<g>
</g>
<g>
</g>
</svg>
